<svg xmlns="http://www.w3.org/2000/svg" width="405" height="22" viewBox="0 0 405 22">
  <g id="logo" transform="translate(-437 -29)" opacity="0.6">
    <text id="Daylight" transform="translate(466 30)" fill="#0f3557" font-size="16" font-family="WorkSans-Regular, Work Sans"><tspan x="0" y="15">Daylight</tspan></text>
    <path id="sun" d="M17,11a6,6,0,1,1-6-6A6.018,6.018,0,0,1,17,11ZM11.5,0h-1V3h1ZM3.6,2.9l-.7.7L5,5.7,5.7,5ZM0,10.5v1H3v-1Zm2.9,7.9.7.7L5.7,17,5,16.3ZM10.5,22h1V19h-1Zm7.9-2.9.7-.7L17,16.3l-.7.7ZM22,11.5v-1H19v1ZM19.1,3.6l-.7-.7L16.3,5l.7.7Z" transform="translate(437 29)" fill="#0f3557"/>
  </g>
</svg>
